<svg width="81" height="84" viewBox="0 0 81 84" fill="none" xmlns="http://www.w3.org/2000/svg">
<g style="mix-blend-mode:multiply">
<path d="M21.3523 27.8001L25.0707 50.2441L20.6166 51.7048L9.43856 39.5082L11.9311 54.5531L7.47702 56.0138L3.75861 33.5698L8.21272 32.1091L19.4082 44.3162L16.9131 29.2559L21.3523 27.8001ZM36.1234 46.9445C34.8763 47.3535 33.7238 47.5148 32.6659 47.4283C31.6063 47.3316 30.6687 47.0269 29.8533 46.5142C29.0477 45.9982 28.381 45.3122 27.853 44.456C27.3233 43.5895 26.9666 42.6014 26.7827 41.4915L26.6805 40.8749C26.4711 39.6109 26.4528 38.398 26.6256 37.2361C26.7983 36.0743 27.1426 35.0025 27.6582 34.0208C28.1838 33.0358 28.8778 32.1853 29.7401 31.4691C30.6007 30.7426 31.615 30.1879 32.7829 29.8048C33.9212 29.4316 34.9631 29.2957 35.9088 29.3973C36.8544 29.499 37.6837 29.8121 38.3968 30.3367C39.1197 30.858 39.7181 31.5719 40.1918 32.4784C40.6637 33.3746 41.001 34.4342 41.2036 35.6571L41.5101 37.5069L28.7417 41.6942L28.2513 38.7345L36.8181 35.9251L36.7619 35.586C36.6597 34.9694 36.4598 34.4553 36.162 34.0437C35.8724 33.6186 35.491 33.332 35.0177 33.1838C34.5444 33.0357 33.9762 33.0703 33.313 33.2878C32.7488 33.4728 32.2851 33.7603 31.9218 34.1503C31.5586 34.5403 31.2866 35.0087 31.1059 35.5556C30.935 36.0992 30.8372 36.7055 30.8124 37.3746C30.7958 38.0301 30.8487 38.7279 30.9713 39.4678L31.0735 40.0844C31.1841 40.7523 31.3754 41.3397 31.6472 41.8465C31.9289 42.3501 32.2721 42.7522 32.6767 43.0529C33.0912 43.3503 33.5597 43.5326 34.0822 43.5996C34.6145 43.6634 35.1925 43.593 35.8161 43.3885C36.5881 43.1354 37.2802 42.7459 37.8923 42.2201C38.5126 41.6808 39.0124 41.013 39.3919 40.2168L41.8586 41.8782C41.6055 42.4922 41.2253 43.1261 40.7179 43.7801C40.2205 44.4308 39.5906 45.0382 38.8283 45.6024C38.0644 46.1563 37.1627 46.6037 36.1234 46.9445ZM47.2147 29.2327L49.3753 42.2736L45.0994 43.6759L42.3361 26.997L46.3596 25.6775L47.2147 29.2327ZM51.4343 23.8996L52.0419 28.0397C51.829 28.077 51.5723 28.1341 51.272 28.2109C50.9798 28.2742 50.715 28.3448 50.4774 28.4227C49.8736 28.6207 49.3627 28.875 48.9445 29.1855C48.5345 29.4825 48.2066 29.8338 47.9607 30.2395C47.7248 30.6419 47.5691 31.0884 47.4939 31.579C47.4285 32.0663 47.4328 32.5958 47.5066 33.1675L46.5995 33.1725C46.4207 32.0934 46.3604 31.0677 46.4184 30.0951C46.4747 29.1124 46.6447 28.2169 46.9282 27.4088C47.2217 26.5975 47.6298 25.9111 48.1524 25.3496C48.6751 24.7882 49.3126 24.3841 50.0648 24.1374C50.3024 24.0595 50.5483 24.0005 50.8026 23.9605C51.0551 23.9101 51.2657 23.8898 51.4343 23.8996ZM64.8222 33.3724L61.5022 13.3331L65.8078 11.9211L69.7306 35.5983L65.8555 36.8691L64.8222 33.3724ZM53.9211 32.2016L53.8675 31.8779C53.6564 30.6036 53.6034 29.402 53.7086 28.2732C53.8121 27.1341 54.0689 26.1018 54.4791 25.1764C54.8893 24.2509 55.4514 23.4544 56.1652 22.7869C56.879 22.1194 57.7358 21.6218 58.7355 21.2939C59.6758 20.9855 60.5314 20.9217 61.3023 21.1023C62.083 21.2796 62.7838 21.6674 63.4047 22.2655C64.0338 22.8502 64.5869 23.606 65.064 24.5331C65.5394 25.4498 65.9468 26.4918 66.2863 27.659L66.4038 28.3681C66.4576 29.5748 66.4137 30.7268 66.272 31.8243C66.1303 32.9218 65.8692 33.9283 65.4887 34.8441C65.1164 35.7463 64.6079 36.5198 63.9634 37.1646C63.3188 37.8093 62.5214 38.2875 61.5712 38.5991C60.5715 38.927 59.6458 39.0084 58.7941 38.8435C57.9522 38.6754 57.201 38.2987 56.5406 37.7135C55.89 37.1251 55.341 36.3625 54.8936 35.4257C54.4462 34.489 54.122 33.4143 53.9211 32.2016ZM58.1434 30.4756L58.1971 30.7994C58.3111 31.4879 58.467 32.1139 58.6648 32.6775C58.8724 33.2379 59.1333 33.7103 59.4475 34.0948C59.7698 34.4659 60.1453 34.7165 60.5739 34.8469C61.0107 34.9637 61.5112 34.9295 62.0753 34.7445C62.8078 34.5043 63.3835 34.1368 63.8024 33.6418C64.2196 33.1366 64.5017 32.5403 64.6487 31.8528C64.8056 31.1621 64.8383 30.4146 64.7468 29.6103L64.4123 27.591C64.2753 26.9533 64.09 26.4019 63.8564 25.9367C63.631 25.4581 63.3491 25.0792 63.0107 24.8001C62.6821 24.5178 62.2979 24.3404 61.8581 24.268C61.4281 24.1923 60.9409 24.2437 60.3965 24.4222C59.8422 24.604 59.3892 24.8934 59.0376 25.2904C58.6842 25.6772 58.4213 26.1372 58.2488 26.6706C58.0861 27.2006 57.9965 27.7934 57.9799 28.449C57.9714 29.091 58.026 29.7666 58.1434 30.4756ZM12.6258 58.746L16.3442 81.1901L11.8901 82.6507L8.17167 60.2067L12.6258 58.746ZM22.8255 65.5101L23.4231 69.1171L13.5944 72.3404L12.9968 68.7333L22.8255 65.5101ZM22.2763 55.5812L22.8765 59.2037L12.0085 62.7677L11.4083 59.1452L22.2763 55.5812ZM35.4291 75.2564C34.182 75.6653 33.0295 75.8266 31.9715 75.7401C30.9119 75.6434 29.9744 75.3387 29.159 74.826C28.3534 74.31 27.6867 73.624 27.1587 72.7678C26.629 71.9014 26.2722 70.9132 26.0884 69.8033L25.9862 69.1867C25.7768 67.9227 25.7585 66.7098 25.9312 65.548C26.104 64.3861 26.4482 63.3144 26.9639 62.3326C27.4895 61.3477 28.1834 60.4971 29.0457 59.7809C29.9064 59.0544 30.9206 58.4997 32.0886 58.1167C33.2269 57.7434 34.2688 57.6075 35.2144 57.7092C36.1601 57.8108 36.9894 58.1239 37.7025 58.6485C38.4254 59.1699 39.0237 59.8838 39.4974 60.7903C39.9694 61.6865 40.3067 62.746 40.5093 63.9689L40.8158 65.8187L28.0474 70.006L27.557 67.0464L36.1237 64.237L36.0676 63.8978C35.9654 63.2813 35.7654 62.7672 35.4677 62.3556C35.1781 61.9305 34.7966 61.6438 34.3234 61.4957C33.8501 61.3475 33.2818 61.3821 32.6187 61.5996C32.0545 61.7846 31.5908 62.0722 31.2275 62.4622C30.8643 62.8522 30.5923 63.3206 30.4115 63.8674C30.2407 64.411 30.1429 65.0173 30.1181 65.6864C30.1014 66.342 30.1544 67.0397 30.277 67.7796L30.3792 68.3962C30.4898 69.0642 30.6811 69.6516 30.9529 70.1583C31.2346 70.6619 31.5777 71.064 31.9824 71.3647C32.3969 71.6622 32.8654 71.8444 33.3879 71.9114C33.9202 71.9752 34.4982 71.9049 35.1218 71.7004C35.8938 71.4472 36.5859 71.0577 37.198 70.5319C37.8182 69.9926 38.3181 69.3249 38.6976 68.5287L41.1643 70.1901C40.9112 70.804 40.531 71.4379 40.0236 72.0919C39.5261 72.7426 38.8963 73.3501 38.134 73.9142C37.37 74.4682 36.4684 74.9155 35.4291 75.2564ZM51.8499 69.8713C50.6028 70.2803 49.4503 70.4415 48.3923 70.3551C47.3327 70.2583 46.3952 69.9536 45.5798 69.4409C44.7742 68.925 44.1075 68.2389 43.5795 67.3827C43.0498 66.5163 42.693 65.5281 42.5092 64.4183L42.407 63.8017C42.1976 62.5376 42.1793 61.3247 42.352 60.1629C42.5248 59.0011 42.869 57.9293 43.3847 56.9476C43.9103 55.9626 44.6042 55.112 45.4665 54.3958C46.3272 53.6694 47.3414 53.1146 48.5094 52.7316C49.6477 52.3583 50.6896 52.2225 51.6352 52.3241C52.5809 52.4257 53.4102 52.7388 54.1233 53.2634C54.8462 53.7848 55.4445 54.4987 55.9182 55.4052C56.3902 56.3014 56.7275 57.361 56.9301 58.5839L57.2366 60.4337L44.4682 64.621L43.9778 61.6613L52.5445 58.8519L52.4884 58.5128C52.3862 57.8962 52.1862 57.3821 51.8885 56.9705C51.5989 56.5454 51.2174 56.2588 50.7442 56.1106C50.2709 55.9624 49.7026 55.9971 49.0395 56.2146C48.4753 56.3996 48.0116 56.6871 47.6483 57.0771C47.2851 57.4671 47.0131 57.9355 46.8323 58.4823C46.6615 59.0259 46.5637 59.6323 46.5389 60.3013C46.5222 60.9569 46.5752 61.6546 46.6978 62.3945L46.8 63.0111C46.9106 63.6791 47.1019 64.2665 47.3737 64.7733C47.6554 65.2768 47.9985 65.6789 48.4032 65.9796C48.8177 66.2771 49.2862 66.4593 49.8087 66.5264C50.341 66.5902 50.919 66.5198 51.5426 66.3153C52.3146 66.0621 53.0067 65.6726 53.6188 65.1469C54.239 64.6076 54.7389 63.9398 55.1184 63.1436L57.5851 64.805C57.332 65.4189 56.9518 66.0529 56.4444 66.7068C55.9469 67.3575 55.3171 67.965 54.5548 68.5292C53.7908 69.0831 52.8892 69.5305 51.8499 69.8713ZM69.7104 59.8535L66.3904 39.8142L70.696 38.4022L74.6187 62.0794L70.7436 63.3502L69.7104 59.8535ZM58.8093 58.6827L58.7557 58.359C58.5445 57.0847 58.4916 55.8831 58.5968 54.7543C58.7002 53.6152 58.9571 52.5829 59.3673 51.6575C59.7775 50.732 60.3395 49.9355 61.0534 49.268C61.7672 48.6005 62.624 48.1029 63.6237 47.775C64.564 47.4666 65.4196 47.4028 66.1904 47.5834C66.9712 47.7607 67.672 48.1485 68.2929 48.7466C68.922 49.3313 69.4751 50.0871 69.9522 51.0142C70.4276 51.9309 70.835 52.9729 71.1745 54.1401L71.2919 54.8492C71.3458 56.0559 71.3018 57.2079 71.1601 58.3054C71.0185 59.4029 70.7574 60.4094 70.3768 61.3252C70.0045 62.2274 69.4961 63.0009 68.8515 63.6457C68.207 64.2904 67.4096 64.7686 66.4594 65.0802C65.4597 65.4081 64.534 65.4896 63.6822 65.3246C62.8404 65.1565 62.0892 64.7798 61.4287 64.1946C60.7781 63.6062 60.2291 62.8436 59.7817 61.9068C59.3343 60.9701 59.0102 59.8954 58.8093 58.6827ZM63.0316 56.9567L63.0852 57.2805C63.1993 57.969 63.3552 58.595 63.5529 59.1586C63.7606 59.719 64.0215 60.1914 64.3356 60.5759C64.658 60.947 65.0335 61.1976 65.462 61.328C65.8988 61.4448 66.3993 61.4107 66.9635 61.2256C67.696 60.9854 68.2716 60.6179 68.6906 60.1229C69.1078 59.6177 69.3899 59.0214 69.5369 58.3339C69.6938 57.6432 69.7265 56.8957 69.635 56.0914L69.3004 54.0721C69.1635 53.4344 68.9782 52.883 68.7446 52.4178C68.5192 51.9392 68.2373 51.5603 67.8988 51.2812C67.5703 50.9989 67.1861 50.8215 66.7462 50.7491C66.3162 50.6734 65.8291 50.7248 65.2847 50.9033C64.7304 51.0851 64.2774 51.3745 63.9258 51.7715C63.5724 52.1583 63.3095 52.6183 63.1369 53.1517C62.9743 53.6817 62.8846 54.2745 62.868 54.9301C62.8596 55.5721 62.9141 56.2477 63.0316 56.9567Z" fill="#5B6CFF" fill-opacity="0.4"/>
</g>
<g style="mix-blend-mode:screen" filter="url(#filter0_d_205_6)">
<path d="M19.5181 73.2509C19.1837 73.3606 18.9095 73.3507 18.6957 73.2211C18.4767 73.0599 18.341 72.8215 18.2887 72.5058L13.1656 41.5833C13.1081 41.2361 13.1548 40.9378 13.3059 40.6886C13.4517 40.4077 13.6919 40.2125 14.0263 40.1028L16.1244 39.4148C16.4893 39.2951 16.7786 39.3001 16.9925 39.4296C17.2011 39.5277 17.3284 39.619 17.3745 39.7038L36.5182 58.8887L32.5955 35.2115C32.5379 34.8642 32.5847 34.5659 32.7358 34.3167C32.8816 34.0359 33.1217 33.8406 33.4562 33.7309L35.6455 33.013C35.98 32.9033 36.2567 32.929 36.4758 33.0902C36.72 33.2098 36.8709 33.4432 36.9284 33.7905L42.0437 64.6656C42.096 64.9813 42.034 65.2846 41.8578 65.5754C41.7119 65.8562 41.487 66.0465 41.1829 66.1462L38.9936 66.8641C38.6592 66.9738 38.385 66.9639 38.1712 66.8343C37.9878 66.6947 37.8604 66.6033 37.7892 66.5601L18.7303 47.597L22.6216 71.0849C22.6739 71.4006 22.612 71.7038 22.4357 71.9946C22.2847 72.2438 22.0419 72.4233 21.7074 72.533L19.5181 73.2509ZM51.1868 62.8655C50.8524 62.9752 50.5782 62.9652 50.3644 62.8356C50.1453 62.6745 50.0097 62.436 49.9574 62.1203L44.8343 31.1978C44.7768 30.8506 44.8235 30.5523 44.9746 30.3031C45.1204 30.0223 45.3606 29.827 45.695 29.7173L64.3039 23.6147C64.6384 23.505 64.9152 23.5307 65.1342 23.6919C65.348 23.8215 65.4837 24.0599 65.5412 24.4072L65.8551 26.3014C65.9126 26.6486 65.8658 26.9469 65.7148 27.1961C65.5637 27.4454 65.321 27.6248 64.9865 27.7345L49.7527 32.7303L51.5807 43.7639L65.9023 39.0673C66.2367 38.9576 66.5135 38.9833 66.7326 39.1445C66.9464 39.2741 67.0821 39.5125 67.1396 39.8598L67.4534 41.7539C67.5057 42.0696 67.4589 42.3679 67.3131 42.6487C67.1621 42.898 66.9193 43.0774 66.5848 43.1871L52.2633 47.8837L54.3815 60.6695C54.4338 60.9852 54.3719 61.2884 54.1956 61.5792C54.0446 61.8284 53.8018 62.0079 53.4673 62.1176L51.1868 62.8655Z" fill="#5B6CFF"/>
</g>
<defs>
<filter id="filter0_d_205_6" x="9.97731" y="22.2707" width="60.8674" height="52.3243" filterUnits="userSpaceOnUse" color-interpolation-filters="sRGB">
<feFlood flood-opacity="0" result="BackgroundImageFix"/>
<feColorMatrix in="SourceAlpha" type="matrix" values="0 0 0 0 0 0 0 0 0 0 0 0 0 0 0 0 0 0 127 0" result="hardAlpha"/>
<feOffset dx="-2"/>
<feGaussianBlur stdDeviation="0.5"/>
<feComposite in2="hardAlpha" operator="out"/>
<feColorMatrix type="matrix" values="0 0 0 0 0.0516667 0 0 0 0 0.080102 0 0 0 0 0.4 0 0 0 1 0"/>
<feBlend mode="normal" in2="BackgroundImageFix" result="effect1_dropShadow_205_6"/>
<feBlend mode="normal" in="SourceGraphic" in2="effect1_dropShadow_205_6" result="shape"/>
</filter>
</defs>
</svg>
