<?xml version="1.0" standalone="no"?>
<!DOCTYPE svg PUBLIC "-//W3C//DTD SVG 20010904//EN"
 "http://www.w3.org/TR/2001/REC-SVG-20010904/DTD/svg10.dtd">
<svg version="1.0" xmlns="http://www.w3.org/2000/svg"
 width="300.000000pt" height="60.000000pt" viewBox="0 0 300.000000 60.000000"
 preserveAspectRatio="xMidYMid meet">

<g transform="translate(0.000000,60.000000) scale(0.100000,-0.100000)"
fill="#000000" stroke="none">
<path d="M1708 536 c-14 -10 -18 -28 -18 -86 l0 -73 -21 19 c-16 14 -36 19
-83 19 -54 0 -68 -4 -100 -29 -71 -53 -93 -143 -56 -223 25 -56 70 -83 137
-83 44 0 58 5 88 31 l35 31 0 -25 c0 -32 16 -43 35 -23 12 12 15 53 15 235 0
122 -3 221 -7 221 -5 0 -16 -7 -25 -14z m-69 -185 c30 -17 51 -63 51 -115 0
-65 -40 -109 -98 -109 -97 0 -160 105 -115 193 29 56 92 68 162 31z"/>
<path d="M2640 543 c-30 -12 -40 -33 -40 -85 l0 -53 -43 3 c-24 2 -59 -3 -78
-10 -28 -12 -39 -12 -64 -2 -41 18 -100 17 -135 -1 -25 -13 -33 -13 -66 1 -57
24 -125 14 -174 -25 -31 -24 -48 -31 -84 -31 l-46 0 0 55 0 55 88 0 c96 0 122
12 122 58 0 21 -3 22 -131 22 -100 0 -134 -3 -145 -14 -11 -12 -14 -57 -14
-230 l0 -216 23 0 c43 0 57 29 57 113 l0 77 30 0 c28 0 30 -2 30 -38 0 -56 30
-103 81 -130 38 -20 53 -23 109 -17 36 4 79 6 95 5 42 -3 145 -3 175 0 14 1
42 -1 62 -5 60 -12 127 3 160 35 l28 28 0 206 c0 213 0 214 -40 199z m-467
-219 c9 -3 13 -13 10 -25 -5 -16 -14 -19 -64 -19 l-59 0 16 25 c16 25 60 34
97 19z m205 -2 c27 -18 1 -42 -44 -42 -40 0 -44 2 -44 25 0 22 4 25 38 25 20
0 43 -4 50 -8z m203 -2 c16 -9 19 -22 19 -90 l0 -80 -45 0 c-35 0 -52 6 -70
25 -29 28 -30 42 -10 69 8 11 15 35 15 53 0 31 2 33 36 33 19 0 44 -5 55 -10z
m-403 -145 c11 -24 11 -25 -28 -25 -27 0 -47 7 -67 25 l-28 24 56 1 c50 0 57
-3 67 -25z m201 3 c7 -20 5 -23 -20 -26 -32 -4 -80 16 -87 36 -2 8 11 12 47
12 44 0 53 -3 60 -22z"/>
<path d="M373 515 c-16 -18 -19 -420 -3 -430 6 -3 17 0 25 9 12 12 15 47 15
182 l0 167 139 -176 c77 -96 145 -178 151 -182 5 -3 17 0 25 9 12 12 15 52 15
225 0 213 -3 229 -35 197 -11 -11 -15 -52 -17 -170 l-3 -156 -134 170 c-75 96
-141 170 -150 170 -9 -1 -22 -7 -28 -15z"/>
<path d="M915 401 c-114 -70 -127 -229 -25 -298 48 -33 134 -32 180 2 19 14
38 32 42 40 12 21 -11 29 -31 11 -49 -44 -132 -37 -175 15 -46 54 -39 59 85
59 121 0 139 7 139 55 0 39 -37 103 -70 120 -40 21 -108 19 -145 -4z m118 -49
c18 -16 47 -64 47 -77 0 -3 -46 -4 -102 -3 -103 3 -103 3 -100 27 7 70 101
102 155 53z"/>
<path d="M1213 405 c-17 -18 -18 -325 -2 -325 28 0 39 30 39 112 0 104 19 146
76 168 42 15 64 32 64 49 0 26 -72 2 -112 -37 l-28 -26 0 37 c0 39 -15 48 -37
22z"/>
</g>
</svg>
